<svg width="95" height="19" viewBox="0 0 95 19" fill="none" xmlns="http://www.w3.org/2000/svg">
<path d="M2.16 15C2.06667 15 1.98 14.9933 1.9 14.98C1.52667 14.9667 1.20667 14.8267 0.94 14.56C0.673333 14.28 0.54 13.9533 0.54 13.58C0.553333 12.98 0.546667 11.06 0.52 7.82C0.493333 4.59333 0.506667 2.67333 0.56 2.06C0.573333 1.7 0.72 1.38667 1 1.12C1.29333 0.853333 1.63333 0.726666 2.02 0.739999C2.14 0.699999 2.26 0.68 2.38 0.68C2.9 0.626666 3.28667 0.593333 3.54 0.58C3.7 0.566666 3.94 0.553332 4.26 0.539999C4.58 0.526666 4.91333 0.526666 5.26 0.539999C5.62 0.539999 5.93333 0.559999 6.2 0.599999C6.58667 0.666666 7.03333 0.753333 7.54 0.86C8.03333 0.98 8.5 1.16 8.94 1.4C9.38 1.64 9.78 1.92667 10.14 2.26C10.8333 2.88667 11.3533 3.64 11.7 4.52C12.06 5.4 12.2333 6.35333 12.22 7.38C12.2067 8.42 12.06 9.37333 11.78 10.24C11.4867 11.12 11.04 11.92 10.44 12.64C9.84 13.3467 9.14 13.9 8.34 14.3C7.5 14.7 6.39333 14.9333 5.02 15C4.74 15.0133 4.24 15.0133 3.52 15C2.8 15 2.34667 15 2.16 15ZM4.9 12.26C5.88667 12.1933 6.62 12.0467 7.1 11.82C7.9 11.4333 8.51333 10.7867 8.94 9.88C9.22 9.28 9.38 8.62 9.42 7.9C9.46 7.18 9.38 6.5 9.18 5.86C8.99333 5.20667 8.68667 4.68667 8.26 4.3C7.74 3.83333 7.08 3.54 6.28 3.42C5.49333 3.3 4.50667 3.28667 3.32 3.38C3.30667 4.64667 3.3 5.62 3.3 6.3C3.3 6.9 3.3 7.55333 3.3 8.26C3.31333 8.96667 3.32 9.66667 3.32 10.36C3.33333 11.0533 3.34 11.68 3.34 12.24C3.99333 12.2667 4.51333 12.2733 4.9 12.26ZM18.9858 15.18C17.9191 15.18 16.9858 14.9533 16.1858 14.5C15.3858 14.0467 14.7724 13.44 14.3458 12.68C13.9324 11.92 13.7258 11.08 13.7258 10.16C13.7258 9 13.9391 7.99333 14.3658 7.14C14.7924 6.3 15.4058 5.63333 16.2058 5.14C17.0058 4.64667 17.9124 4.4 18.9258 4.4C19.9658 4.4 20.8591 4.61333 21.6058 5.04C22.3391 5.46667 22.8924 6.04667 23.2658 6.78C23.6391 7.5 23.8258 8.30667 23.8258 9.2C23.8258 9.65333 23.6791 10.0067 23.3858 10.26C23.0924 10.5133 22.6991 10.66 22.2058 10.7C21.2058 10.7933 20.3191 10.84 19.5458 10.84C18.8124 10.84 18.0258 10.82 17.1858 10.78L16.4858 10.76C16.5658 11.4133 16.8191 11.9267 17.2458 12.3C17.6858 12.66 18.3458 12.8267 19.2258 12.8C19.6258 12.7867 19.9458 12.74 20.1858 12.66C20.4258 12.5667 20.6391 12.4333 20.8258 12.26C21.0258 12.06 21.2124 11.8933 21.3858 11.76C21.5591 11.6133 21.7991 11.54 22.1058 11.54C22.4524 11.54 22.7391 11.66 22.9658 11.9C23.2058 12.1267 23.3258 12.3933 23.3258 12.7C23.3258 13.1267 23.1124 13.5333 22.6858 13.92C22.2591 14.3067 21.7058 14.6133 21.0258 14.84C20.3591 15.0667 19.6791 15.18 18.9858 15.18ZM16.5258 8.72C17.3124 8.82667 18.1858 8.86667 19.1458 8.84C20.0658 8.82667 20.7391 8.76667 21.1658 8.66C21.1391 8.08667 20.9658 7.62667 20.6458 7.28C20.3391 6.93333 19.7791 6.76667 18.9658 6.78C18.2858 6.79333 17.7324 6.94667 17.3058 7.24C16.8791 7.53333 16.6191 8.02667 16.5258 8.72ZM28.3697 14.92C27.9564 14.7333 27.6964 14.4133 27.5897 13.96C27.5897 13.92 27.583 13.8867 27.5697 13.86C26.7164 11.0467 25.763 8.55333 24.7097 6.38C24.4964 5.99333 24.4564 5.64 24.5897 5.32C24.723 5 24.943 4.75333 25.2497 4.58C25.5564 4.40667 25.8764 4.35333 26.2097 4.42C26.543 4.48667 26.8097 4.71333 27.0097 5.1C27.743 6.62 28.463 8.31333 29.1697 10.18C29.943 8.22 30.7097 6.53333 31.4697 5.12C31.683 4.77333 31.9497 4.57333 32.2697 4.52C32.603 4.45333 32.9097 4.50667 33.1897 4.68C33.4697 4.84 33.6564 5.08 33.7497 5.4C33.8564 5.70667 33.7897 6.06 33.5497 6.46L33.1297 7.36L31.7097 10.32L31.3897 11.02L31.0497 11.82C30.8897 12.1933 30.7897 12.44 30.7497 12.56C30.6964 12.6933 30.583 12.98 30.4097 13.42L30.0897 14.2C29.943 14.5333 29.703 14.7733 29.3697 14.92C29.0497 15.0533 28.7164 15.0533 28.3697 14.92ZM39.6108 15.18C38.5441 15.18 37.6108 14.9533 36.8108 14.5C36.0108 14.0467 35.3974 13.44 34.9708 12.68C34.5574 11.92 34.3508 11.08 34.3508 10.16C34.3508 9 34.5641 7.99333 34.9908 7.14C35.4174 6.3 36.0308 5.63333 36.8308 5.14C37.6308 4.64667 38.5374 4.4 39.5508 4.4C40.5908 4.4 41.4841 4.61333 42.2308 5.04C42.9641 5.46667 43.5174 6.04667 43.8908 6.78C44.2641 7.5 44.4508 8.30667 44.4508 9.2C44.4508 9.65333 44.3041 10.0067 44.0108 10.26C43.7174 10.5133 43.3241 10.66 42.8308 10.7C41.8308 10.7933 40.9441 10.84 40.1708 10.84C39.4374 10.84 38.6508 10.82 37.8108 10.78L37.1108 10.76C37.1908 11.4133 37.4441 11.9267 37.8708 12.3C38.3108 12.66 38.9708 12.8267 39.8508 12.8C40.2508 12.7867 40.5708 12.74 40.8108 12.66C41.0508 12.5667 41.2641 12.4333 41.4508 12.26C41.6508 12.06 41.8374 11.8933 42.0108 11.76C42.1841 11.6133 42.4241 11.54 42.7308 11.54C43.0774 11.54 43.3641 11.66 43.5908 11.9C43.8308 12.1267 43.9508 12.3933 43.9508 12.7C43.9508 13.1267 43.7374 13.5333 43.3108 13.92C42.8841 14.3067 42.3308 14.6133 41.6508 14.84C40.9841 15.0667 40.3041 15.18 39.6108 15.18ZM37.1508 8.72C37.9374 8.82667 38.8108 8.86667 39.7708 8.84C40.6908 8.82667 41.3641 8.76667 41.7908 8.66C41.7641 8.08667 41.5908 7.62667 41.2708 7.28C40.9641 6.93333 40.4041 6.76667 39.5908 6.78C38.9108 6.79333 38.3574 6.94667 37.9308 7.24C37.5041 7.53333 37.2441 8.02667 37.1508 8.72ZM48.9547 13.86C48.9414 14.3133 48.788 14.6533 48.4947 14.88C48.2147 15.1067 47.888 15.2133 47.5147 15.2C47.1547 15.2 46.8347 15.0867 46.5547 14.86C46.288 14.62 46.1547 14.2733 46.1547 13.82C46.1814 13.82 46.188 11.9 46.1747 8.06L46.1547 1.94C46.1547 1.56667 46.248 1.27333 46.4347 1.06C46.6214 0.833333 46.8547 0.686666 47.1347 0.619999C47.4147 0.539999 47.6947 0.539999 47.9747 0.619999C48.2547 0.686666 48.488 0.833333 48.6747 1.06C48.8614 1.27333 48.9547 1.56667 48.9547 1.94C48.9547 3.00667 48.9614 4.33333 48.9747 5.92C48.9747 6.52 48.9747 7.18667 48.9747 7.92C48.9747 8.64 48.9747 9.37333 48.9747 10.12C48.9747 10.8533 48.968 11.5467 48.9547 12.2C48.9547 12.8533 48.9547 13.4067 48.9547 13.86ZM54.7942 15.14C53.6342 14.9133 52.7276 14.38 52.0742 13.54C51.4076 12.7 51.0076 11.74 50.8742 10.66C50.7942 9.99333 50.8142 9.32 50.9342 8.64C51.0676 7.96 51.2942 7.32 51.6142 6.72C51.9476 6.12 52.3742 5.6 52.8942 5.16C53.2009 4.89333 53.5942 4.68667 54.0742 4.54C54.0876 4.54 54.2276 4.5 54.4942 4.42C54.6009 4.39333 54.6809 4.36667 54.7342 4.34C55.1076 4.19333 55.4809 4.20667 55.8542 4.38C57.1076 4.58 57.9476 4.78667 58.3742 5C58.9742 5.29333 59.4609 5.74 59.8342 6.34C60.2209 6.92667 60.4809 7.57333 60.6142 8.28C60.7609 8.98667 60.7742 9.65333 60.6542 10.28C60.5876 10.9333 60.4409 11.56 60.2142 12.16C59.9876 12.7733 59.6409 13.3533 59.1742 13.9C58.7076 14.4467 58.1609 14.8333 57.5342 15.06C56.7742 15.3267 55.8609 15.3533 54.7942 15.14ZM55.3142 12.42C55.8876 12.5267 56.3209 12.5267 56.6142 12.42C56.8942 12.3133 57.1276 12.1 57.3142 11.78C57.5142 11.46 57.6609 11.0867 57.7542 10.66C57.8609 10.22 57.9076 9.78667 57.8942 9.36C57.8942 8.92 57.8342 8.53333 57.7142 8.2C57.5942 7.86667 57.4142 7.64 57.1742 7.52C56.9076 7.4 56.6142 7.32667 56.2942 7.3C55.9876 7.26 55.6409 7.19333 55.2542 7.1C55.0276 7.16667 54.9076 7.2 54.8942 7.2L54.6942 7.28C54.3209 7.6 54.0342 8.04 53.8342 8.6C53.6342 9.16 53.5742 9.74 53.6542 10.34C53.7876 11.5267 54.3409 12.22 55.3142 12.42ZM65.3805 17.64C65.3671 18.0933 65.2138 18.4333 64.9205 18.66C64.6405 18.8867 64.3138 18.9933 63.9405 18.98C63.5805 18.98 63.2605 18.86 62.9805 18.62C62.7138 18.3933 62.5805 18.0533 62.5805 17.6C62.6205 15.2933 62.6405 11.3733 62.6405 5.84C62.6405 5.45333 62.7738 5.12667 63.0405 4.86C63.3205 4.58 63.6538 4.44 64.0405 4.44C64.5471 4.44 64.9405 4.66 65.2205 5.1C66.6605 4.3 68.0338 4.19333 69.3405 4.78C70.4871 5.31333 71.3271 6.26 71.8605 7.62C72.0871 8.20667 72.2205 8.82667 72.2605 9.48C72.3005 10.1333 72.2338 10.78 72.0605 11.42C71.9005 12.0467 71.6138 12.6267 71.2005 13.16C70.8005 13.68 70.2671 14.1067 69.6005 14.44C68.4538 15.0133 67.4271 15.1667 66.5205 14.9C66.1471 14.7933 65.7805 14.62 65.4205 14.38C65.4071 15.3933 65.3938 16.48 65.3805 17.64ZM67.3205 12.32C67.5205 12.3867 67.8671 12.3 68.3605 12.06C68.8805 11.7933 69.2271 11.34 69.4005 10.7C69.5738 10.0467 69.5405 9.35333 69.3005 8.62C69.0071 7.96667 68.6338 7.53333 68.1805 7.32C67.7138 7.10667 67.2605 7.08667 66.8205 7.26C66.3805 7.43333 65.9205 7.88667 65.4405 8.62V10.92C65.7071 11.4133 66.0071 11.7733 66.3405 12C66.6738 12.2133 67.0005 12.32 67.3205 12.32Z" fill="black"/>
<path d="M79.0248 15.18C77.9582 15.18 77.0248 14.9533 76.2248 14.5C75.4248 14.0467 74.8115 13.44 74.3848 12.68C73.9715 11.92 73.7648 11.08 73.7648 10.16C73.7648 9 73.9782 7.99333 74.4048 7.14C74.8315 6.3 75.4448 5.63333 76.2448 5.14C77.0448 4.64667 77.9515 4.4 78.9648 4.4C80.0048 4.4 80.8982 4.61333 81.6448 5.04C82.3782 5.46667 82.9315 6.04667 83.3048 6.78C83.6782 7.5 83.8648 8.30667 83.8648 9.2C83.8648 9.65333 83.7182 10.0067 83.4248 10.26C83.1315 10.5133 82.7382 10.66 82.2448 10.7C81.2448 10.7933 80.3582 10.84 79.5848 10.84C78.8515 10.84 78.0648 10.82 77.2248 10.78L76.5248 10.76C76.6048 11.4133 76.8582 11.9267 77.2848 12.3C77.7248 12.66 78.3848 12.8267 79.2648 12.8C79.6648 12.7867 79.9848 12.74 80.2248 12.66C80.4648 12.5667 80.6782 12.4333 80.8648 12.26C81.0648 12.06 81.2515 11.8933 81.4248 11.76C81.5982 11.6133 81.8382 11.54 82.1448 11.54C82.4915 11.54 82.7782 11.66 83.0048 11.9C83.2448 12.1267 83.3648 12.3933 83.3648 12.7C83.3648 13.1267 83.1515 13.5333 82.7248 13.92C82.2982 14.3067 81.7448 14.6133 81.0648 14.84C80.3982 15.0667 79.7182 15.18 79.0248 15.18ZM76.5648 8.72C77.3515 8.82667 78.2248 8.86667 79.1848 8.84C80.1048 8.82667 80.7782 8.76667 81.2048 8.66C81.1782 8.08667 81.0048 7.62667 80.6848 7.28C80.3782 6.93333 79.8182 6.76667 79.0048 6.78C78.3248 6.79333 77.7715 6.94667 77.3448 7.24C76.9182 7.53333 76.6582 8.02667 76.5648 8.72ZM86.0288 14.58C85.7488 14.3133 85.6088 13.9933 85.6088 13.62C85.5954 12.3 85.5888 11.26 85.5888 10.5C85.5621 10.34 85.5621 10.1867 85.5888 10.04C85.5754 8.56 85.5688 7.22 85.5688 6.02C85.5688 5.5 85.7021 5.10667 85.9688 4.84C86.2488 4.56 86.5821 4.42 86.9688 4.42C87.2488 4.42 87.5021 4.5 87.7288 4.66C87.9688 4.80667 88.1421 5.07333 88.2488 5.46C88.7821 5.16667 89.5821 4.83333 90.6488 4.46C91.0621 4.31333 91.4154 4.33333 91.7088 4.52C92.0021 4.69333 92.2021 4.94667 92.3088 5.28C92.4288 5.6 92.4288 5.92 92.3088 6.24C92.2021 6.56 91.9421 6.79333 91.5288 6.94C90.3021 7.36667 89.2554 7.78667 88.3888 8.2C88.3354 8.62667 88.3288 9.23333 88.3688 10.02C88.3821 10.86 88.3954 12.0467 88.4088 13.58C88.4088 13.9933 88.2688 14.3333 87.9888 14.6C87.7221 14.8533 87.4021 14.9867 87.0288 15C86.6554 15.0133 86.3221 14.8733 86.0288 14.58ZM94.4084 12.52C94.6884 12.8 94.8418 13.1 94.8684 13.42C94.8951 13.7267 94.8284 14.0133 94.6684 14.28C94.5218 14.5467 94.3151 14.76 94.0484 14.92C93.7818 15.0667 93.4884 15.1267 93.1684 15.1C92.8618 15.0733 92.5684 14.92 92.2884 14.64C92.0084 14.36 91.8551 14.0667 91.8284 13.76C91.8018 13.44 91.8618 13.1467 92.0084 12.88C92.1684 12.6133 92.3818 12.4067 92.6484 12.26C92.9151 12.1 93.2018 12.0333 93.5084 12.06C93.8284 12.0867 94.1284 12.24 94.4084 12.52Z" fill="#DC143C"/>
</svg>
