<svg width="203" height="19" viewBox="0 0 203 19" fill="none" xmlns="http://www.w3.org/2000/svg">
<path d="M14.72 13.66C14.7067 14.0333 14.6 14.3267 14.4 14.54C14.2133 14.7533 13.98 14.8933 13.7 14.96C13.42 15.0267 13.14 15.02 12.86 14.94C12.58 14.86 12.3467 14.7067 12.16 14.48C11.9867 14.2533 11.9067 13.9533 11.92 13.58C11.9467 12.7133 11.9333 10.1533 11.88 5.9C10.8933 7.14 9.92 8.46667 8.96 9.88C8.73333 10.2 8.43333 10.4 8.06 10.48C7.68667 10.5467 7.34 10.4733 7.02 10.26C6.98 10.2333 6.94667 10.2067 6.92 10.18C6.77333 10.0867 6.64667 9.97333 6.54 9.84L3.46 5.96C3.47333 5.98667 3.48 7.26 3.48 9.78C3.46667 12.3133 3.46 13.5867 3.46 13.6C3.46 13.9733 3.36667 14.2733 3.18 14.5C2.99333 14.7133 2.76 14.86 2.48 14.94C2.2 15.0067 1.92 15.0067 1.64 14.94C1.36 14.86 1.12667 14.7133 0.94 14.5C0.753333 14.2733 0.66 13.9733 0.66 13.6C0.66 13.04 0.666667 12.1 0.68 10.78C0.68 10.38 0.68 9.92 0.68 9.4C0.68 8.86667 0.673333 8.32667 0.66 7.78C0.66 7.23333 0.66 6.72 0.66 6.24C0.66 5.76 0.653333 5.36 0.64 5.04C0.613333 4.09333 0.566667 3.11333 0.5 2.1C0.473333 1.71333 0.586667 1.37333 0.84 1.08C1.09333 0.786666 1.41333 0.626666 1.8 0.599999C2 0.586666 2.18667 0.613333 2.36 0.68C2.73333 0.733333 3.03333 0.913333 3.26 1.22L7.7 6.8C9.14 4.8 10.6067 3 12.1 1.4C12.38 0.92 12.7933 0.686666 13.34 0.699999C13.7267 0.713332 14.0533 0.859999 14.32 1.14C14.5867 1.42 14.7133 1.75333 14.7 2.14C14.66 3.40667 14.66 5.34 14.7 7.94C14.74 10.5533 14.7467 12.46 14.72 13.66ZM20.9661 15.14C19.8061 14.9133 18.8994 14.38 18.2461 13.54C17.5794 12.7 17.1794 11.74 17.0461 10.66C16.9661 9.99333 16.9861 9.32 17.1061 8.64C17.2394 7.96 17.4661 7.32 17.7861 6.72C18.1194 6.12 18.5461 5.6 19.0661 5.16C19.3728 4.89333 19.7661 4.68667 20.2461 4.54C20.2594 4.54 20.3994 4.5 20.6661 4.42C20.7728 4.39333 20.8528 4.36667 20.9061 4.34C21.2794 4.19333 21.6528 4.20667 22.0261 4.38C23.2794 4.58 24.1194 4.78667 24.5461 5C25.1461 5.29333 25.6328 5.74 26.0061 6.34C26.3928 6.92667 26.6528 7.57333 26.7861 8.28C26.9328 8.98667 26.9461 9.65333 26.8261 10.28C26.7594 10.9333 26.6128 11.56 26.3861 12.16C26.1594 12.7733 25.8128 13.3533 25.3461 13.9C24.8794 14.4467 24.3328 14.8333 23.7061 15.06C22.9461 15.3267 22.0328 15.3533 20.9661 15.14ZM21.4861 12.42C22.0594 12.5267 22.4928 12.5267 22.7861 12.42C23.0661 12.3133 23.2994 12.1 23.4861 11.78C23.6861 11.46 23.8328 11.0867 23.9261 10.66C24.0328 10.22 24.0794 9.78667 24.0661 9.36C24.0661 8.92 24.0061 8.53333 23.8861 8.2C23.7661 7.86667 23.5861 7.64 23.3461 7.52C23.0794 7.4 22.7861 7.32667 22.4661 7.3C22.1594 7.26 21.8128 7.19333 21.4261 7.1C21.1994 7.16667 21.0794 7.2 21.0661 7.2L20.8661 7.28C20.4928 7.6 20.2061 8.04 20.0061 8.6C19.8061 9.16 19.7461 9.74 19.8261 10.34C19.9594 11.5267 20.5128 12.22 21.4861 12.42ZM30.1123 14.98C29.7257 14.9667 29.399 14.82 29.1323 14.54C28.8657 14.2467 28.739 13.9133 28.7523 13.54C28.8323 11.18 28.839 7.34667 28.7723 2.04C28.7723 1.58667 28.9057 1.24667 29.1723 1.02C29.4523 0.779999 29.7723 0.66 30.1323 0.66C30.5057 0.646666 30.8323 0.753332 31.1123 0.979999C31.4057 1.20667 31.559 1.54667 31.5723 2C31.5723 2.21333 31.579 2.64667 31.5923 3.3C31.5923 3.95333 31.5923 4.42667 31.5923 4.72L31.8723 4.6C32.7257 4.29333 33.519 4.19333 34.2523 4.3C34.9723 4.40667 35.639 4.69333 36.2523 5.16C37.319 5.96 38.039 7.1 38.4123 8.58C38.799 9.95333 38.7057 11.24 38.1323 12.44C37.799 13.1333 37.319 13.7 36.6923 14.14C36.0657 14.58 35.3123 14.8467 34.4323 14.94C33.299 15.0733 32.299 14.9133 31.4323 14.46L31.1923 14.3C30.899 14.7667 30.539 14.9933 30.1123 14.98ZM34.1523 12.18C34.859 12.1 35.3457 11.7867 35.6123 11.24C35.8923 10.64 35.9257 9.98667 35.7123 9.28C35.499 8.42667 35.119 7.79333 34.5723 7.38C34.079 7.02 33.5257 6.96 32.9123 7.2C32.819 7.24 32.559 7.40667 32.1323 7.7C31.8923 7.9 31.7323 8.10667 31.6523 8.32L31.6323 8.34C31.6323 9.24667 31.6257 10.02 31.6123 10.66C31.7457 10.8067 31.8857 10.98 32.0323 11.18L32.3723 11.62C32.5323 11.82 32.659 11.94 32.7523 11.98C33.099 12.1667 33.5657 12.2333 34.1523 12.18ZM40.4102 13.64C40.3702 10.8133 40.3902 8.16667 40.4702 5.7C40.4835 5.32667 40.5835 5.03333 40.7702 4.82C40.9702 4.60667 41.2102 4.47333 41.4902 4.42C41.7702 4.35333 42.0502 4.36667 42.3302 4.46C42.6102 4.54 42.8368 4.69333 43.0102 4.92C43.1968 5.14667 43.2835 5.44667 43.2702 5.82C43.1902 8.31333 43.1702 10.9067 43.2102 13.6C43.2102 14.0533 43.0702 14.4 42.7902 14.64C42.5235 14.8667 42.2035 14.9867 41.8302 15C41.4702 15 41.1435 14.8867 40.8502 14.66C40.5702 14.4333 40.4235 14.0933 40.4102 13.64ZM42.7902 0.94C43.0568 1.19333 43.2035 1.47333 43.2302 1.78C43.2568 2.07333 43.1968 2.35333 43.0502 2.62C42.9035 2.87333 42.6968 3.08 42.4302 3.24C42.1768 3.38667 41.8968 3.44667 41.5902 3.42C41.2968 3.39333 41.0168 3.24667 40.7502 2.98C40.4835 2.71333 40.3368 2.42667 40.3102 2.12C40.2835 1.81333 40.3435 1.53333 40.4902 1.28C40.6502 1.02667 40.8568 0.826666 41.1102 0.68C41.3635 0.519999 41.6368 0.453333 41.9302 0.48C42.2368 0.506666 42.5235 0.659999 42.7902 0.94ZM48.2125 13.86C48.1992 14.3133 48.0458 14.6533 47.7525 14.88C47.4725 15.1067 47.1458 15.2133 46.7725 15.2C46.4125 15.2 46.0925 15.0867 45.8125 14.86C45.5458 14.62 45.4125 14.2733 45.4125 13.82C45.4392 13.82 45.4458 11.9 45.4325 8.06L45.4125 1.94C45.4125 1.56667 45.5058 1.27333 45.6925 1.06C45.8792 0.833333 46.1125 0.686666 46.3925 0.619999C46.6725 0.539999 46.9525 0.539999 47.2325 0.619999C47.5125 0.686666 47.7458 0.833333 47.9325 1.06C48.1192 1.27333 48.2125 1.56667 48.2125 1.94C48.2125 3.00667 48.2192 4.33333 48.2325 5.92C48.2325 6.52 48.2325 7.18667 48.2325 7.92C48.2325 8.64 48.2325 9.37333 48.2325 10.12C48.2325 10.8533 48.2258 11.5467 48.2125 12.2C48.2125 12.8533 48.2125 13.4067 48.2125 13.86ZM55.392 15.18C54.3254 15.18 53.392 14.9533 52.592 14.5C51.792 14.0467 51.1787 13.44 50.752 12.68C50.3387 11.92 50.132 11.08 50.132 10.16C50.132 9 50.3454 7.99333 50.772 7.14C51.1987 6.3 51.812 5.63333 52.612 5.14C53.412 4.64667 54.3187 4.4 55.332 4.4C56.372 4.4 57.2654 4.61333 58.012 5.04C58.7454 5.46667 59.2987 6.04667 59.672 6.78C60.0454 7.5 60.232 8.30667 60.232 9.2C60.232 9.65333 60.0854 10.0067 59.792 10.26C59.4987 10.5133 59.1054 10.66 58.612 10.7C57.612 10.7933 56.7254 10.84 55.952 10.84C55.2187 10.84 54.432 10.82 53.592 10.78L52.892 10.76C52.972 11.4133 53.2254 11.9267 53.652 12.3C54.092 12.66 54.752 12.8267 55.632 12.8C56.032 12.7867 56.352 12.74 56.592 12.66C56.832 12.5667 57.0454 12.4333 57.232 12.26C57.432 12.06 57.6187 11.8933 57.792 11.76C57.9654 11.6133 58.2054 11.54 58.512 11.54C58.8587 11.54 59.1454 11.66 59.372 11.9C59.612 12.1267 59.732 12.3933 59.732 12.7C59.732 13.1267 59.5187 13.5333 59.092 13.92C58.6654 14.3067 58.112 14.6133 57.432 14.84C56.7654 15.0667 56.0854 15.18 55.392 15.18ZM52.932 8.72C53.7187 8.82667 54.592 8.86667 55.552 8.84C56.472 8.82667 57.1454 8.76667 57.572 8.66C57.5454 8.08667 57.372 7.62667 57.052 7.28C56.7454 6.93333 56.1854 6.76667 55.372 6.78C54.692 6.79333 54.1387 6.94667 53.712 7.24C53.2854 7.53333 53.0254 8.02667 52.932 8.72ZM66.4266 14.18C66.2666 13.82 66.2599 13.4667 66.4066 13.12L70.8866 1.58C70.9932 1.32667 71.1599 1.12 71.3866 0.96C71.6132 0.799999 71.8666 0.713332 72.1466 0.699999C72.4399 0.646666 72.7266 0.699999 73.0066 0.86C73.2999 1.00667 73.5199 1.22 73.6666 1.5L75.1466 5.18L76.8866 9.48L78.2666 13.08C78.3999 13.4267 78.4199 13.74 78.3266 14.02C78.2332 14.2867 78.0666 14.5067 77.8266 14.68C77.5999 14.8533 77.3399 14.96 77.0466 15C76.7666 15.0267 76.4932 14.9733 76.2266 14.84C75.9732 14.7067 75.7732 14.4733 75.6266 14.14L74.4666 11.5C72.9732 11.46 71.4932 11.4733 70.0266 11.54L69.0466 14.18C68.8732 14.5533 68.6066 14.8067 68.2466 14.94C67.8999 15.06 67.5466 15.06 67.1866 14.94C66.8399 14.8067 66.5866 14.5533 66.4266 14.18ZM71.1866 8.68C71.4399 8.68 71.7466 8.68 72.1066 8.68C72.4799 8.68 72.9066 8.68 73.3866 8.68L72.3266 5.8L71.1866 8.68ZM82.0211 17.64C82.0078 18.0933 81.8544 18.4333 81.5611 18.66C81.2811 18.8867 80.9544 18.9933 80.5811 18.98C80.2211 18.98 79.9011 18.86 79.6211 18.62C79.3544 18.3933 79.2211 18.0533 79.2211 17.6C79.2611 15.2933 79.2811 11.3733 79.2811 5.84C79.2811 5.45333 79.4144 5.12667 79.6811 4.86C79.9611 4.58 80.2944 4.44 80.6811 4.44C81.1878 4.44 81.5811 4.66 81.8611 5.1C83.3011 4.3 84.6744 4.19333 85.9811 4.78C87.1278 5.31333 87.9678 6.26 88.5011 7.62C88.7278 8.20667 88.8611 8.82667 88.9011 9.48C88.9411 10.1333 88.8744 10.78 88.7011 11.42C88.5411 12.0467 88.2544 12.6267 87.8411 13.16C87.4411 13.68 86.9078 14.1067 86.2411 14.44C85.0944 15.0133 84.0678 15.1667 83.1611 14.9C82.7878 14.7933 82.4211 14.62 82.0611 14.38C82.0478 15.3933 82.0344 16.48 82.0211 17.64ZM83.9611 12.32C84.1611 12.3867 84.5078 12.3 85.0011 12.06C85.5211 11.7933 85.8678 11.34 86.0411 10.7C86.2144 10.0467 86.1811 9.35333 85.9411 8.62C85.6478 7.96667 85.2744 7.53333 84.8211 7.32C84.3544 7.10667 83.9011 7.08667 83.4611 7.26C83.0211 7.43333 82.5611 7.88667 82.0811 8.62V10.92C82.3478 11.4133 82.6478 11.7733 82.9811 12C83.3144 12.2133 83.6411 12.32 83.9611 12.32ZM93.5055 17.64C93.4921 18.0933 93.3388 18.4333 93.0455 18.66C92.7655 18.8867 92.4388 18.9933 92.0655 18.98C91.7055 18.98 91.3855 18.86 91.1055 18.62C90.8388 18.3933 90.7055 18.0533 90.7055 17.6C90.7455 15.2933 90.7655 11.3733 90.7655 5.84C90.7655 5.45333 90.8988 5.12667 91.1655 4.86C91.4455 4.58 91.7788 4.44 92.1655 4.44C92.6721 4.44 93.0655 4.66 93.3455 5.1C94.7855 4.3 96.1588 4.19333 97.4655 4.78C98.6121 5.31333 99.4521 6.26 99.9855 7.62C100.212 8.20667 100.345 8.82667 100.385 9.48C100.425 10.1333 100.359 10.78 100.185 11.42C100.025 12.0467 99.7388 12.6267 99.3255 13.16C98.9255 13.68 98.3921 14.1067 97.7255 14.44C96.5788 15.0133 95.5521 15.1667 94.6455 14.9C94.2721 14.7933 93.9055 14.62 93.5455 14.38C93.5321 15.3933 93.5188 16.48 93.5055 17.64ZM95.4455 12.32C95.6455 12.3867 95.9921 12.3 96.4855 12.06C97.0055 11.7933 97.3521 11.34 97.5255 10.7C97.6988 10.0467 97.6655 9.35333 97.4255 8.62C97.1321 7.96667 96.7588 7.53333 96.3055 7.32C95.8388 7.10667 95.3855 7.08667 94.9455 7.26C94.5055 7.43333 94.0455 7.88667 93.5655 8.62V10.92C93.8321 11.4133 94.1321 11.7733 94.4655 12C94.7988 12.2133 95.1255 12.32 95.4455 12.32Z" fill="black"/>
<path d="M109.64 15C109.547 15 109.46 14.9933 109.38 14.98C109.007 14.9667 108.687 14.8267 108.42 14.56C108.154 14.28 108.02 13.9533 108.02 13.58C108.034 12.98 108.027 11.06 108 7.82C107.974 4.59333 107.987 2.67333 108.04 2.06C108.054 1.7 108.2 1.38667 108.48 1.12C108.774 0.853333 109.114 0.726666 109.5 0.739999C109.62 0.699999 109.74 0.68 109.86 0.68C110.38 0.626666 110.767 0.593333 111.02 0.58C111.18 0.566666 111.42 0.553332 111.74 0.539999C112.06 0.526666 112.394 0.526666 112.74 0.539999C113.1 0.539999 113.414 0.559999 113.68 0.599999C114.067 0.666666 114.514 0.753333 115.02 0.86C115.514 0.98 115.98 1.16 116.42 1.4C116.86 1.64 117.26 1.92667 117.62 2.26C118.314 2.88667 118.834 3.64 119.18 4.52C119.54 5.4 119.714 6.35333 119.7 7.38C119.687 8.42 119.54 9.37333 119.26 10.24C118.967 11.12 118.52 11.92 117.92 12.64C117.32 13.3467 116.62 13.9 115.82 14.3C114.98 14.7 113.874 14.9333 112.5 15C112.22 15.0133 111.72 15.0133 111 15C110.28 15 109.827 15 109.64 15ZM112.38 12.26C113.367 12.1933 114.1 12.0467 114.58 11.82C115.38 11.4333 115.994 10.7867 116.42 9.88C116.7 9.28 116.86 8.62 116.9 7.9C116.94 7.18 116.86 6.5 116.66 5.86C116.474 5.20667 116.167 4.68667 115.74 4.3C115.22 3.83333 114.56 3.54 113.76 3.42C112.974 3.3 111.987 3.28667 110.8 3.38C110.787 4.64667 110.78 5.62 110.78 6.3C110.78 6.9 110.78 7.55333 110.78 8.26C110.794 8.96667 110.8 9.66667 110.8 10.36C110.814 11.0533 110.82 11.68 110.82 12.24C111.474 12.2667 111.994 12.2733 112.38 12.26ZM126.466 15.18C125.4 15.18 124.466 14.9533 123.666 14.5C122.866 14.0467 122.253 13.44 121.826 12.68C121.413 11.92 121.206 11.08 121.206 10.16C121.206 9 121.42 7.99333 121.846 7.14C122.273 6.3 122.886 5.63333 123.686 5.14C124.486 4.64667 125.393 4.4 126.406 4.4C127.446 4.4 128.34 4.61333 129.086 5.04C129.82 5.46667 130.373 6.04667 130.746 6.78C131.12 7.5 131.306 8.30667 131.306 9.2C131.306 9.65333 131.16 10.0067 130.866 10.26C130.573 10.5133 130.18 10.66 129.686 10.7C128.686 10.7933 127.8 10.84 127.026 10.84C126.293 10.84 125.506 10.82 124.666 10.78L123.966 10.76C124.046 11.4133 124.3 11.9267 124.726 12.3C125.166 12.66 125.826 12.8267 126.706 12.8C127.106 12.7867 127.426 12.74 127.666 12.66C127.906 12.5667 128.12 12.4333 128.306 12.26C128.506 12.06 128.693 11.8933 128.866 11.76C129.04 11.6133 129.28 11.54 129.586 11.54C129.933 11.54 130.22 11.66 130.446 11.9C130.686 12.1267 130.806 12.3933 130.806 12.7C130.806 13.1267 130.593 13.5333 130.166 13.92C129.74 14.3067 129.186 14.6133 128.506 14.84C127.84 15.0667 127.16 15.18 126.466 15.18ZM124.006 8.72C124.793 8.82667 125.666 8.86667 126.626 8.84C127.546 8.82667 128.22 8.76667 128.646 8.66C128.62 8.08667 128.446 7.62667 128.126 7.28C127.82 6.93333 127.26 6.76667 126.446 6.78C125.766 6.79333 125.213 6.94667 124.786 7.24C124.36 7.53333 124.1 8.02667 124.006 8.72ZM135.85 14.92C135.437 14.7333 135.177 14.4133 135.07 13.96C135.07 13.92 135.063 13.8867 135.05 13.86C134.197 11.0467 133.243 8.55333 132.19 6.38C131.977 5.99333 131.937 5.64 132.07 5.32C132.203 5 132.423 4.75333 132.73 4.58C133.037 4.40667 133.357 4.35333 133.69 4.42C134.023 4.48667 134.29 4.71333 134.49 5.1C135.223 6.62 135.943 8.31333 136.65 10.18C137.423 8.22 138.19 6.53333 138.95 5.12C139.163 4.77333 139.43 4.57333 139.75 4.52C140.083 4.45333 140.39 4.50667 140.67 4.68C140.95 4.84 141.137 5.08 141.23 5.4C141.337 5.70667 141.27 6.06 141.03 6.46L140.61 7.36L139.19 10.32L138.87 11.02L138.53 11.82C138.37 12.1933 138.27 12.44 138.23 12.56C138.177 12.6933 138.063 12.98 137.89 13.42L137.57 14.2C137.423 14.5333 137.183 14.7733 136.85 14.92C136.53 15.0533 136.197 15.0533 135.85 14.92ZM147.091 15.18C146.025 15.18 145.091 14.9533 144.291 14.5C143.491 14.0467 142.878 13.44 142.451 12.68C142.038 11.92 141.831 11.08 141.831 10.16C141.831 9 142.045 7.99333 142.471 7.14C142.898 6.3 143.511 5.63333 144.311 5.14C145.111 4.64667 146.018 4.4 147.031 4.4C148.071 4.4 148.965 4.61333 149.711 5.04C150.445 5.46667 150.998 6.04667 151.371 6.78C151.745 7.5 151.931 8.30667 151.931 9.2C151.931 9.65333 151.785 10.0067 151.491 10.26C151.198 10.5133 150.805 10.66 150.311 10.7C149.311 10.7933 148.425 10.84 147.651 10.84C146.918 10.84 146.131 10.82 145.291 10.78L144.591 10.76C144.671 11.4133 144.925 11.9267 145.351 12.3C145.791 12.66 146.451 12.8267 147.331 12.8C147.731 12.7867 148.051 12.74 148.291 12.66C148.531 12.5667 148.745 12.4333 148.931 12.26C149.131 12.06 149.318 11.8933 149.491 11.76C149.665 11.6133 149.905 11.54 150.211 11.54C150.558 11.54 150.845 11.66 151.071 11.9C151.311 12.1267 151.431 12.3933 151.431 12.7C151.431 13.1267 151.218 13.5333 150.791 13.92C150.365 14.3067 149.811 14.6133 149.131 14.84C148.465 15.0667 147.785 15.18 147.091 15.18ZM144.631 8.72C145.418 8.82667 146.291 8.86667 147.251 8.84C148.171 8.82667 148.845 8.76667 149.271 8.66C149.245 8.08667 149.071 7.62667 148.751 7.28C148.445 6.93333 147.885 6.76667 147.071 6.78C146.391 6.79333 145.838 6.94667 145.411 7.24C144.985 7.53333 144.725 8.02667 144.631 8.72ZM156.435 13.86C156.422 14.3133 156.268 14.6533 155.975 14.88C155.695 15.1067 155.368 15.2133 154.995 15.2C154.635 15.2 154.315 15.0867 154.035 14.86C153.768 14.62 153.635 14.2733 153.635 13.82C153.662 13.82 153.668 11.9 153.655 8.06L153.635 1.94C153.635 1.56667 153.728 1.27333 153.915 1.06C154.102 0.833333 154.335 0.686666 154.615 0.619999C154.895 0.539999 155.175 0.539999 155.455 0.619999C155.735 0.686666 155.968 0.833333 156.155 1.06C156.342 1.27333 156.435 1.56667 156.435 1.94C156.435 3.00667 156.442 4.33333 156.455 5.92C156.455 6.52 156.455 7.18667 156.455 7.92C156.455 8.64 156.455 9.37333 156.455 10.12C156.455 10.8533 156.448 11.5467 156.435 12.2C156.435 12.8533 156.435 13.4067 156.435 13.86ZM162.275 15.14C161.115 14.9133 160.208 14.38 159.555 13.54C158.888 12.7 158.488 11.74 158.355 10.66C158.275 9.99333 158.295 9.32 158.415 8.64C158.548 7.96 158.775 7.32 159.095 6.72C159.428 6.12 159.855 5.6 160.375 5.16C160.681 4.89333 161.075 4.68667 161.555 4.54C161.568 4.54 161.708 4.5 161.975 4.42C162.081 4.39333 162.161 4.36667 162.215 4.34C162.588 4.19333 162.961 4.20667 163.335 4.38C164.588 4.58 165.428 4.78667 165.855 5C166.455 5.29333 166.941 5.74 167.315 6.34C167.701 6.92667 167.961 7.57333 168.095 8.28C168.241 8.98667 168.255 9.65333 168.135 10.28C168.068 10.9333 167.921 11.56 167.695 12.16C167.468 12.7733 167.121 13.3533 166.655 13.9C166.188 14.4467 165.641 14.8333 165.015 15.06C164.255 15.3267 163.341 15.3533 162.275 15.14ZM162.795 12.42C163.368 12.5267 163.801 12.5267 164.095 12.42C164.375 12.3133 164.608 12.1 164.795 11.78C164.995 11.46 165.141 11.0867 165.235 10.66C165.341 10.22 165.388 9.78667 165.375 9.36C165.375 8.92 165.315 8.53333 165.195 8.2C165.075 7.86667 164.895 7.64 164.655 7.52C164.388 7.4 164.095 7.32667 163.775 7.3C163.468 7.26 163.121 7.19333 162.735 7.1C162.508 7.16667 162.388 7.2 162.375 7.2L162.175 7.28C161.801 7.6 161.515 8.04 161.315 8.6C161.115 9.16 161.055 9.74 161.135 10.34C161.268 11.5267 161.821 12.22 162.795 12.42ZM172.861 17.64C172.848 18.0933 172.694 18.4333 172.401 18.66C172.121 18.8867 171.794 18.9933 171.421 18.98C171.061 18.98 170.741 18.86 170.461 18.62C170.194 18.3933 170.061 18.0533 170.061 17.6C170.101 15.2933 170.121 11.3733 170.121 5.84C170.121 5.45333 170.254 5.12667 170.521 4.86C170.801 4.58 171.134 4.44 171.521 4.44C172.028 4.44 172.421 4.66 172.701 5.1C174.141 4.3 175.514 4.19333 176.821 4.78C177.968 5.31333 178.808 6.26 179.341 7.62C179.568 8.20667 179.701 8.82667 179.741 9.48C179.781 10.1333 179.714 10.78 179.541 11.42C179.381 12.0467 179.094 12.6267 178.681 13.16C178.281 13.68 177.748 14.1067 177.081 14.44C175.934 15.0133 174.908 15.1667 174.001 14.9C173.628 14.7933 173.261 14.62 172.901 14.38C172.888 15.3933 172.874 16.48 172.861 17.64ZM174.801 12.32C175.001 12.3867 175.348 12.3 175.841 12.06C176.361 11.7933 176.708 11.34 176.881 10.7C177.054 10.0467 177.021 9.35333 176.781 8.62C176.488 7.96667 176.114 7.53333 175.661 7.32C175.194 7.10667 174.741 7.08667 174.301 7.26C173.861 7.43333 173.401 7.88667 172.921 8.62V10.92C173.188 11.4133 173.488 11.7733 173.821 12C174.154 12.2133 174.481 12.32 174.801 12.32ZM186.505 15.18C185.439 15.18 184.505 14.9533 183.705 14.5C182.905 14.0467 182.292 13.44 181.865 12.68C181.452 11.92 181.245 11.08 181.245 10.16C181.245 9 181.459 7.99333 181.885 7.14C182.312 6.3 182.925 5.63333 183.725 5.14C184.525 4.64667 185.432 4.4 186.445 4.4C187.485 4.4 188.379 4.61333 189.125 5.04C189.859 5.46667 190.412 6.04667 190.785 6.78C191.159 7.5 191.345 8.30667 191.345 9.2C191.345 9.65333 191.199 10.0067 190.905 10.26C190.612 10.5133 190.219 10.66 189.725 10.7C188.725 10.7933 187.839 10.84 187.065 10.84C186.332 10.84 185.545 10.82 184.705 10.78L184.005 10.76C184.085 11.4133 184.339 11.9267 184.765 12.3C185.205 12.66 185.865 12.8267 186.745 12.8C187.145 12.7867 187.465 12.74 187.705 12.66C187.945 12.5667 188.159 12.4333 188.345 12.26C188.545 12.06 188.732 11.8933 188.905 11.76C189.079 11.6133 189.319 11.54 189.625 11.54C189.972 11.54 190.259 11.66 190.485 11.9C190.725 12.1267 190.845 12.3933 190.845 12.7C190.845 13.1267 190.632 13.5333 190.205 13.92C189.779 14.3067 189.225 14.6133 188.545 14.84C187.879 15.0667 187.199 15.18 186.505 15.18ZM184.045 8.72C184.832 8.82667 185.705 8.86667 186.665 8.84C187.585 8.82667 188.259 8.76667 188.685 8.66C188.659 8.08667 188.485 7.62667 188.165 7.28C187.859 6.93333 187.299 6.76667 186.485 6.78C185.805 6.79333 185.252 6.94667 184.825 7.24C184.399 7.53333 184.139 8.02667 184.045 8.72ZM193.509 14.58C193.229 14.3133 193.089 13.9933 193.089 13.62C193.076 12.3 193.069 11.26 193.069 10.5C193.043 10.34 193.043 10.1867 193.069 10.04C193.056 8.56 193.049 7.22 193.049 6.02C193.049 5.5 193.183 5.10667 193.449 4.84C193.729 4.56 194.063 4.42 194.449 4.42C194.729 4.42 194.983 4.5 195.209 4.66C195.449 4.80667 195.623 5.07333 195.729 5.46C196.263 5.16667 197.063 4.83333 198.129 4.46C198.543 4.31333 198.896 4.33333 199.189 4.52C199.483 4.69333 199.683 4.94667 199.789 5.28C199.909 5.6 199.909 5.92 199.789 6.24C199.683 6.56 199.423 6.79333 199.009 6.94C197.783 7.36667 196.736 7.78667 195.869 8.2C195.816 8.62667 195.809 9.23333 195.849 10.02C195.863 10.86 195.876 12.0467 195.889 13.58C195.889 13.9933 195.749 14.3333 195.469 14.6C195.203 14.8533 194.883 14.9867 194.509 15C194.136 15.0133 193.803 14.8733 193.509 14.58ZM201.889 12.52C202.169 12.8 202.322 13.1 202.349 13.42C202.376 13.7267 202.309 14.0133 202.149 14.28C202.002 14.5467 201.796 14.76 201.529 14.92C201.262 15.0667 200.969 15.1267 200.649 15.1C200.342 15.0733 200.049 14.92 199.769 14.64C199.489 14.36 199.336 14.0667 199.309 13.76C199.282 13.44 199.342 13.1467 199.489 12.88C199.649 12.6133 199.862 12.4067 200.129 12.26C200.396 12.1 200.682 12.0333 200.989 12.06C201.309 12.0867 201.609 12.24 201.889 12.52Z" fill="#DC143C"/>
</svg>
